<!DOCTYPE svg PUBLIC "-//W3C//DTD SVG 1.1//EN" "http://www.w3.org/Graphics/SVG/1.1/DTD/svg11.dtd">
<!-- Uploaded to: SVG Repo, www.svgrepo.com, Transformed by: SVG Repo Mixer Tools -->
<svg width="800px" height="800px" viewBox="0 0 24 24" fill="none" xmlns="http://www.w3.org/2000/svg">
<g id="SVGRepo_bgCarrier" stroke-width="0"/>
<g id="SVGRepo_tracerCarrier" stroke-linecap="round" stroke-linejoin="round"/>
<g id="SVGRepo_iconCarrier"> <path opacity="0.1" d="M8.976 3C4.05476 3 3 4.05476 3 8.976V15.024C3 19.9452 4.05476 21 8.976 21H9V9H21V8.976C21 4.05476 19.9452 3 15.024 3H8.976Z" fill="#ffffff"/> <path d="M3 8.976C3 4.05476 4.05476 3 8.976 3H15.024C19.9452 3 21 4.05476 21 8.976V15.024C21 19.9452 19.9452 21 15.024 21H8.976C4.05476 21 3 19.9452 3 15.024V8.976Z" stroke="#ffffff" stroke-width="2"/> <path d="M21 9L3 9" stroke="#ffffff" stroke-width="2" stroke-linecap="round" stroke-linejoin="round"/> <path d="M9 21L9 9" stroke="#ffffff" stroke-width="2" stroke-linecap="round" stroke-linejoin="round"/> </g>
</svg>