<?xml version="1.0" standalone="no"?>
<!DOCTYPE svg PUBLIC "-//W3C//DTD SVG 20010904//EN"
 "http://www.w3.org/TR/2001/REC-SVG-20010904/DTD/svg10.dtd">
<svg version="1.0" xmlns="http://www.w3.org/2000/svg"
 width="88.000000pt" height="88.000000pt" viewBox="0 0 88.000000 88.000000"
 preserveAspectRatio="xMidYMid meet">

<g transform="translate(0.000000,88.000000) scale(0.100000,-0.100000)"
fill="#000000" stroke="none">
<path d="M3 643 c4 -131 9 -251 12 -268 4 -24 3 -26 -4 -10 -7 15 -10 1 -10
-51 -1 -52 3 -75 14 -84 8 -7 15 -18 15 -25 0 -6 13 -12 28 -12 l29 0 -23 41
c-25 44 -30 61 -14 51 5 -3 10 1 10 10 0 18 38 35 59 27 11 -4 13 -1 7 14 -17
41 -18 56 -5 65 11 7 10 9 -3 9 -15 0 -18 9 -18 55 0 55 0 55 20 35 11 -11 20
-31 20 -45 0 -33 21 -28 37 9 12 27 14 27 35 14 33 -22 32 -35 -2 -43 -35 -8
-50 -32 -29 -46 10 -7 7 -8 -11 -7 -22 3 -25 -1 -24 -27 0 -16 9 -47 19 -68
l18 -39 86 9 c107 10 230 10 343 0 l87 -7 25 43 c14 23 32 67 40 97 8 30 15
45 15 34 1 -12 -6 -40 -14 -63 -14 -41 -14 -42 5 -36 14 4 27 -2 43 -19 l24
-25 16 53 c21 65 22 205 2 261 -18 50 -18 53 -2 30 13 -16 14 -15 9 14 -3 23
-8 29 -16 21 -9 -7 -18 1 -34 29 -12 21 -18 42 -14 46 4 5 2 5 -4 2 -6 -3 -28
12 -50 34 -21 23 -61 54 -89 70 -48 28 -57 42 -12 17 19 -10 20 -9 10 3 -8 10
-36 15 -87 17 l-76 2 0 -32 c0 -25 -3 -29 -10 -18 -5 8 -10 11 -11 5 -1 -5 -5
4 -9 20 l-8 30 -1 -27 c-1 -21 -6 -28 -20 -28 -14 0 -21 8 -24 28 -4 27 -4 27
-6 -3 -1 -23 -6 -31 -21 -32 -15 -1 -20 4 -20 23 0 14 4 23 9 19 5 -3 12 -1
16 5 12 20 -80 10 -132 -15 -102 -47 -186 -146 -224 -263 -10 -31 -18 -50 -18
-41 -1 20 29 111 40 124 13 14 11 43 -3 48 -9 3 -7 10 7 26 13 15 16 24 8 29
-7 4 3 21 28 46 27 26 39 33 39 22 0 -18 15 -13 55 18 18 14 13 15 -68 16
l-88 0 2 -90 c1 -50 -1 -94 -5 -97 -3 -3 -6 37 -6 90 0 67 -4 97 -12 97 -8 0
-9 -61 -5 -237z m82 211 c-11 -8 -26 -22 -32 -31 -11 -15 -13 -13 -13 15 0 29
3 32 33 32 31 -1 31 -1 12 -16z m265 -24 c0 -9 -9 -16 -20 -17 -11 -1 -20 2
-20 7 0 5 -3 17 -7 27 -6 16 -5 16 10 4 15 -12 17 -11 17 5 0 16 2 17 10 4 5
-8 10 -22 10 -30z m170 28 c0 -7 -5 -20 -10 -28 -8 -12 -10 -9 -10 13 0 15 5
27 10 27 6 0 10 -6 10 -12z m36 0 c5 -7 3 -8 -6 -3 -10 6 -11 2 -6 -19 3 -14
2 -26 -3 -26 -15 0 -21 15 -14 38 6 24 18 28 29 10z m44 -20 c0 -18 -20 -47
-20 -30 0 7 -4 10 -10 7 -12 -7 -12 -3 -4 19 7 19 34 22 34 4z m-302 -23 c2
-14 -6 -24 -25 -33 -24 -11 -30 -10 -40 5 -18 23 -16 33 5 32 10 0 12 -3 4 -6
-15 -6 -6 -23 14 -23 11 0 13 7 8 26 -6 22 -4 25 12 22 11 -2 20 -12 22 -23z
m335 19 c7 -7 -14 -44 -26 -44 -4 0 -3 8 2 19 6 10 7 21 4 25 -3 3 -2 6 4 6 5
0 12 -3 16 -6z m13 -46 c-11 -15 -16 -18 -16 -7 0 16 21 42 28 34 2 -2 -3 -14
-12 -27z m-183 15 c-13 -2 -33 -2 -45 0 -13 2 -3 4 22 4 25 0 35 -2 23 -4z
m227 -27 c-18 -18 -11 -30 9 -12 15 13 20 14 24 4 2 -8 -1 -22 -9 -32 -13 -18
-14 -18 -38 5 -29 27 -32 39 -14 57 9 9 15 9 25 0 10 -8 11 -14 3 -22z m-313
18 c-3 -3 -12 -4 -19 -1 -8 3 -5 6 6 6 11 1 17 -2 13 -5z m150 0 c-3 -3 -12
-4 -19 -1 -8 3 -5 6 6 6 11 1 17 -2 13 -5z m84 -32 c24 -16 59 -43 77 -61 32
-33 82 -119 82 -142 0 -7 -14 15 -31 49 -33 67 -100 134 -164 163 -22 10 -33
19 -24 19 8 0 35 -13 60 -28z m-402 4 c9 -11 9 -16 0 -21 -10 -7 -28 10 -29
28 0 12 17 8 29 -7z m34 -32 c-18 -13 -46 -42 -64 -62 -17 -20 -26 -28 -21
-16 12 22 97 104 109 104 5 0 -6 -12 -24 -26z m-73 -28 c-13 -13 -45 17 -35
34 5 8 12 6 26 -6 13 -12 16 -21 9 -28z m600 14 c0 -9 -31 -30 -44 -30 -8 0
27 38 37 39 4 1 7 -3 7 -9z m-630 -25 c15 -18 4 -36 -18 -28 -15 6 -15 5 -3
-10 8 -10 9 -17 3 -17 -6 0 -14 5 -17 10 -8 13 -25 13 -25 1 0 -5 9 -13 21
-16 29 -10 17 -17 -15 -9 -21 5 -24 9 -15 25 5 10 17 19 25 19 8 0 12 5 9 10
-7 11 2 30 14 30 5 0 14 -7 21 -15z m650 -4 c0 -5 -9 -13 -20 -16 -11 -4 -18
-11 -15 -16 4 -5 13 -5 24 1 10 5 21 6 25 3 11 -12 6 -21 -11 -19 -10 0 -17
-5 -15 -11 3 -20 -4 -15 -23 13 -16 24 -16 26 2 40 21 16 33 18 33 5z m-647
-76 c-3 -9 -8 -14 -10 -11 -3 3 -2 9 2 15 9 16 15 13 8 -4z m685 -20 c-1 -1
-13 -6 -25 -9 -16 -5 -21 -3 -19 9 4 25 29 37 39 19 5 -9 7 -17 5 -19z m-738
15 c24 -13 15 -40 -11 -33 -23 6 -33 19 -24 33 8 12 12 12 35 0z m31 -61 c-6
-16 -10 -18 -10 -7 -1 22 12 55 16 42 2 -6 -1 -22 -6 -35z m714 21 c-3 -5 0
-10 7 -11 16 -1 -22 -17 -42 -18 -13 -1 -13 0 0 9 13 9 13 10 0 10 -13 0 -13
1 0 10 20 13 43 13 35 0z m-751 -42 c-6 -51 -7 -52 -33 -43 -28 8 -28 39 -1
32 11 -3 20 -1 20 4 0 5 -6 9 -14 9 -9 0 -14 9 -13 20 1 14 8 20 24 20 20 0
21 -4 17 -42z m693 -35 c-3 -10 -5 -2 -5 17 0 19 2 27 5 18 2 -10 2 -26 0 -35z
m73 27 c0 -15 -7 -20 -25 -20 -29 0 -35 26 -7 33 30 8 32 7 32 -13z m6 -39
c-10 -16 -56 -20 -56 -5 0 9 11 14 31 14 16 0 28 -4 25 -9z m-776 -26 c0 -9
-9 -15 -25 -15 -16 0 -25 6 -25 15 0 9 9 15 25 15 16 0 25 -6 25 -15z m769 -4
c7 -5 10 -14 7 -20 -10 -16 -56 -14 -56 2 0 26 23 35 49 18z m-800 -33 c9 15
31 0 35 -24 3 -10 7 -27 11 -36 4 -10 3 -18 -3 -18 -6 0 -17 -3 -26 -6 -9 -3
-16 -1 -16 4 0 6 10 13 23 15 19 4 18 4 -5 6 -31 1 -39 27 -10 34 13 4 11 5
-5 6 -15 1 -23 7 -22 19 0 12 2 13 6 3 4 -9 8 -10 12 -3z m198 -2 c5 -8 19
-19 33 -25 24 -9 24 -10 -7 -10 -46 -1 -41 -19 7 -27 22 -4 43 -11 47 -17 8
-13 -42 -3 -93 18 -31 13 -34 17 -24 30 10 12 10 15 -1 16 -10 0 -11 2 -1 6 6
2 10 9 6 14 -3 5 2 9 10 9 8 0 19 -6 23 -14z m595 -31 c-1 -11 -3 -27 -4 -36
-2 -14 -6 -15 -25 -6 -28 13 -30 27 -3 20 15 -4 20 0 20 16 0 11 -5 21 -11 21
-5 0 -7 -4 -4 -10 3 -5 1 -10 -4 -10 -6 0 -11 7 -11 16 0 10 7 14 23 12 15 -2
21 -9 19 -23z m-107 5 c3 -5 2 -10 -4 -10 -5 0 -13 5 -16 10 -3 6 -2 10 4 10
5 0 13 -4 16 -10z m-240 -20 c3 -5 2 -10 -4 -10 -5 0 -12 -14 -16 -31 -6 -28
-10 -31 -37 -25 -17 3 -40 6 -51 6 -11 0 -17 3 -13 7 4 4 21 7 39 8 25 0 35 6
45 28 14 28 26 34 37 17z m-455 -65 c0 -5 -5 -3 -10 5 -5 8 -10 20 -10 25 0 6
5 3 10 -5 5 -8 10 -19 10 -25z m350 -15 c0 -5 -5 -10 -11 -10 -5 0 -7 5 -4 10
3 6 8 10 11 10 2 0 4 -4 4 -10z m235 -10 c3 -5 1 -10 -4 -10 -6 0 -11 5 -11
10 0 6 2 10 4 10 3 0 8 -4 11 -10z"/>
<path d="M50 849 c0 -5 5 -7 10 -4 6 3 10 8 10 11 0 2 -4 4 -10 4 -5 0 -10 -5
-10 -11z"/>
<path d="M276 817 c3 -10 9 -15 12 -12 3 3 0 11 -7 18 -10 9 -11 8 -5 -6z"/>
<path d="M665 779 c-4 -6 -5 -12 -2 -15 2 -3 7 2 10 11 7 17 1 20 -8 4z"/>
<path d="M117 689 c7 -7 15 -10 18 -7 3 3 -2 9 -12 12 -14 6 -15 5 -6 -5z"/>
<path d="M818 513 c7 -3 16 -2 19 1 4 3 -2 6 -13 5 -11 0 -14 -3 -6 -6z"/>
<path d="M48 453 c7 -3 16 -2 19 1 4 3 -2 6 -13 5 -11 0 -14 -3 -6 -6z"/>
<path d="M818 433 c7 -3 16 -2 19 1 4 3 -2 6 -13 5 -11 0 -14 -3 -6 -6z"/>
<path d="M710 873 c0 -5 12 -16 25 -26 19 -14 25 -15 25 -4 0 8 16 -1 38 -22
21 -20 34 -38 28 -41 -13 -6 -18 -40 -6 -37 5 1 16 -7 24 -18 14 -18 15 -13
16 68 l0 87 -75 0 c-41 0 -75 -3 -75 -7z m140 -35 l0 -32 -30 29 c-16 16 -30
30 -30 32 0 2 14 3 30 3 27 0 30 -3 30 -32z"/>
<path d="M825 850 c3 -5 8 -10 11 -10 2 0 4 5 4 10 0 6 -5 10 -11 10 -5 0 -7
-4 -4 -10z"/>
<path d="M95 810 c-18 -19 -17 -20 3 -20 15 0 22 6 22 20 0 11 -2 20 -3 20 -2
0 -12 -9 -22 -20z"/>
<path d="M770 810 c0 -14 7 -20 22 -20 20 0 21 1 3 20 -10 11 -20 20 -22 20
-1 0 -3 -9 -3 -20z"/>
<path d="M820 708 c0 -15 5 -30 12 -34 6 -4 8 -3 4 4 -3 5 -1 12 4 14 7 2 5
11 -4 23 -15 19 -15 19 -16 -7z"/>
<path d="M843 274 c-10 -22 -10 -25 3 -20 9 3 20 6 25 6 5 0 9 9 9 20 0 28
-23 25 -37 -6z"/>
<path d="M96 268 c3 -5 10 -6 15 -3 13 9 11 12 -6 12 -8 0 -12 -4 -9 -9z"/>
<path d="M147 261 c-4 -15 -10 -19 -24 -15 -15 5 -15 4 -3 -5 12 -9 9 -11 -14
-11 l-29 0 25 -32 c37 -48 51 -48 46 0 -3 34 0 42 15 44 16 3 16 5 4 22 -13
18 -14 18 -20 -3z"/>
<path d="M716 265 c-4 -11 -3 -21 1 -22 4 -2 7 -23 5 -48 -2 -26 0 -45 6 -45
5 0 25 17 43 37 l32 37 -30 8 c-16 4 -34 18 -40 30 -9 21 -10 21 -17 3z"/>
<path d="M767 274 c-13 -13 -7 -24 13 -24 11 0 20 5 20 11 0 5 -4 8 -9 5 -5
-4 -11 -1 -13 5 -2 5 -7 7 -11 3z"/>
<path d="M635 209 c9 -17 14 -37 11 -44 -3 -9 2 -12 16 -10 26 5 25 4 30 39 2
17 -2 31 -9 33 -7 3 -13 -4 -14 -14 0 -16 -2 -15 -16 5 -23 33 -36 27 -18 -9z"/>
<path d="M184 203 c-3 -16 -7 -34 -9 -40 -4 -12 15 -14 25 -2 3 3 14 11 25 17
17 10 18 11 3 12 -26 0 -22 28 5 33 16 3 13 5 -10 6 -28 1 -33 -3 -39 -26z"/>
<path d="M591 218 c-1 -17 -11 -22 -37 -19 -6 1 -11 -5 -11 -13 0 -9 14 -16
38 -18 25 -2 35 0 29 7 -4 5 -10 21 -13 35 -2 14 -5 17 -6 8z"/>
<path d="M260 191 c0 -17 5 -33 10 -36 6 -4 10 8 10 29 0 20 -4 36 -10 36 -5
0 -10 -13 -10 -29z"/>
<path d="M300 193 c0 -16 5 -35 10 -43 7 -11 10 -11 10 -2 0 7 7 12 16 10 21
-4 39 24 31 46 -4 10 -18 16 -37 16 -26 0 -30 -4 -30 -27z m50 2 c0 -8 -7 -15
-15 -15 -16 0 -20 12 -8 23 11 12 23 8 23 -8z"/>
<path d="M390 190 c0 -32 6 -36 30 -20 10 6 11 10 3 10 -20 0 -15 28 5 33 10
3 6 5 -10 6 -25 1 -28 -3 -28 -29z"/>
<path d="M460 190 c0 -32 6 -36 30 -20 13 8 12 10 -2 10 -25 0 -22 19 5 30 21
8 21 9 -5 9 -25 1 -28 -3 -28 -29z"/>
<path d="M857 214 c-2 -3 -15 -6 -28 -8 -13 -1 -41 -20 -62 -40 -30 -31 -35
-41 -26 -53 18 -20 -1 -34 -52 -38 -24 -2 -64 -10 -88 -19 -24 -9 -49 -16 -55
-15 -6 0 14 9 44 20 30 10 58 23 63 28 21 21 -382 26 -436 6 -9 -4 -14 -17
-13 -36 2 -25 -1 -29 -23 -30 -88 -2 -181 -12 -181 -20 0 -5 178 -9 440 -9
l440 0 0 21 c0 16 -4 19 -17 14 -28 -11 -232 -17 -208 -6 45 21 63 24 133 22
l72 -3 0 56 c0 31 -4 56 -10 56 -5 0 -11 -4 -11 -10 -1 -5 -2 -14 -3 -18 -3
-19 -55 -71 -59 -59 -3 9 -8 9 -21 -2 -9 -8 -19 -12 -22 -9 -2 3 7 13 21 22
14 9 25 23 25 31 0 8 8 15 18 15 10 0 29 17 42 39 l25 39 6 -57 6 -56 1 57 c2
51 -6 76 -21 62z m-7 -132 c0 -10 -8 -18 -19 -19 -18 -2 -19 0 -3 18 20 23 22
24 22 1z m-565 -17 c33 -13 53 -25 45 -25 -14 0 -121 48 -110 49 3 1 32 -10
65 -24z m300 15 c3 -5 1 -10 -4 -10 -6 0 -11 5 -11 10 0 6 2 10 4 10 3 0 8 -4
11 -10z m-51 -15 c-4 -8 -8 -15 -10 -15 -2 0 -4 7 -4 15 0 8 4 15 10 15 5 0 7
-7 4 -15z m-136 -32 c-10 -2 -26 -2 -35 0 -10 3 -2 5 17 5 19 0 27 -2 18 -5z
m120 0 c-10 -2 -26 -2 -35 0 -10 3 -2 5 17 5 19 0 27 -2 18 -5z"/>
<path d="M53 178 c-4 -7 -1 -8 6 -3 9 5 12 0 9 -16 -2 -19 2 -25 20 -27 13 -2
22 -10 22 -21 0 -9 5 -22 12 -29 15 -15 54 -16 63 -2 4 6 3 10 -2 9 -26 -4
-54 3 -51 14 8 35 -62 102 -79 75z"/>
<path d="M0 126 c0 -25 5 -48 10 -51 6 -4 10 13 10 44 0 28 -4 51 -10 51 -5 0
-10 -20 -10 -44z"/>
<path d="M30 110 c0 -43 3 -60 9 -50 6 8 7 18 5 22 -9 15 3 8 17 -9 12 -14 12
-16 0 -8 -9 5 -12 4 -8 -1 3 -6 25 -11 48 -13 38 -2 41 0 29 15 -8 9 -16 12
-17 7 -2 -5 -19 4 -38 21 -19 17 -30 33 -25 36 6 4 4 14 -5 26 -13 17 -14 13
-15 -46z"/>
<path d="M408 133 c6 -2 18 -2 25 0 6 3 1 5 -13 5 -14 0 -19 -2 -12 -5z"/>
<path d="M70 116 c0 -2 7 -9 15 -16 12 -10 15 -10 15 4 0 9 -7 16 -15 16 -8 0
-15 -2 -15 -4z"/>
<path d="M790 104 c0 -14 3 -14 15 -4 8 7 15 14 15 16 0 2 -7 4 -15 4 -8 0
-15 -7 -15 -16z"/>
</g>
</svg>
